<?xml version="1.0" encoding="utf-8"?>
<!-- Generator: Adobe Illustrator 17.0.1, SVG Export Plug-In . SVG Version: 6.00 Build 0)  -->
<!DOCTYPE svg PUBLIC "-//W3C//DTD SVG 1.1//EN" "http://www.w3.org/Graphics/SVG/1.1/DTD/svg11.dtd">
<svg version="1.1" id="Ebene_1" xmlns="http://www.w3.org/2000/svg" xmlns:xlink="http://www.w3.org/1999/xlink" x="0px" y="0px"
	 width="14px" height="20px" viewBox="0 0 14 20" enable-background="new 0 0 14 20" xml:space="preserve">
<g>
	<g>
		<circle fill="#FFFFFF" cx="6.898" cy="7.138" r="3.742"/>
	</g>
	<g>
		<path fill="#D63E2A" d="M7,19.773C6.106,18.753,0.15,11.771,0.15,7c0-3.777,3.073-6.85,6.85-6.85S13.85,3.223,13.85,7
			C13.85,11.771,7.895,18.753,7,19.773z M7,4.35C5.539,4.35,4.35,5.539,4.35,7S5.539,9.65,7,9.65c1.461,0,2.65-1.188,2.65-2.65
			S8.461,4.35,7,4.35z"/>
		<path fill="#911D1D" d="M7,0.3c3.694,0,6.7,3.006,6.7,6.7c0,4.551-5.514,11.173-6.7,12.545C5.813,18.173,0.3,11.553,0.3,7
			C0.3,3.306,3.306,0.3,7,0.3 M7,9.8c1.544,0,2.8-1.256,2.8-2.8S8.544,4.2,7,4.2S4.2,5.456,4.2,7S5.456,9.8,7,9.8 M7,0
			C3.135,0,0,3.134,0,7c0,5.25,7,13,7,13s7-7.75,7-13C14,3.134,10.865,0,7,0L7,0z M7,9.5C5.62,9.5,4.5,8.381,4.5,7S5.62,4.5,7,4.5
			c1.381,0,2.5,1.119,2.5,2.5S8.381,9.5,7,9.5L7,9.5z"/>
	</g>
</g>
</svg>
